<svg xmlns="http://www.w3.org/2000/svg" xmlns:xlink="http://www.w3.org/1999/xlink" width="470" zoomAndPan="magnify" viewBox="0 0 352.5 33.749998" height="45" preserveAspectRatio="xMidYMid meet" version="1.0"><defs><g/></defs><g fill="#ffffff" fill-opacity="1"><g transform="translate(16.158209, 24.80166)"><g><path d="M 13.847656 -6.773438 C 13.847656 -10.027344 12.546875 -12.222656 9.351562 -12.222656 C 7.777344 -12.222656 6.503906 -11.519531 5.691406 -10.488281 L 5.691406 -20.324219 L 1.625 -20.324219 L 1.625 0 L 5.691406 0 L 5.691406 -5.960938 C 5.691406 -7.589844 6.695312 -8.941406 7.96875 -8.941406 C 9.242188 -8.941406 9.785156 -8.183594 9.785156 -6.773438 L 9.785156 0 L 13.847656 0 Z M 13.847656 -6.773438 "/></g></g></g><g fill="#ffffff" fill-opacity="1"><g transform="translate(36.643842, 24.80166)"><g><path d="M 7.777344 -2.820312 C 5.582031 -2.820312 4.988281 -4.417969 4.988281 -5.933594 C 4.988281 -7.425781 5.636719 -9.023438 7.777344 -9.023438 C 9.890625 -9.023438 10.542969 -7.425781 10.542969 -5.933594 C 10.542969 -4.417969 9.945312 -2.820312 7.777344 -2.820312 Z M 7.777344 -12.195312 C 4.039062 -12.195312 0.949219 -9.703125 0.949219 -5.960938 C 0.949219 -2.140625 3.957031 0.242188 7.777344 0.242188 C 11.570312 0.242188 14.578125 -2.140625 14.578125 -5.960938 C 14.578125 -9.703125 11.492188 -12.195312 7.777344 -12.195312 Z M 7.777344 -12.195312 "/></g></g></g><g fill="#ffffff" fill-opacity="1"><g transform="translate(57.590113, 24.80166)"><g><path d="M 8.375 -8.941406 C 8.996094 -8.941406 9.59375 -8.753906 10 -8.265625 L 10.054688 -8.265625 L 10.054688 -11.953125 C 9.730469 -12.113281 9.1875 -12.222656 8.835938 -12.222656 C 7.34375 -12.222656 6.3125 -11.382812 5.691406 -10.488281 L 5.691406 -11.953125 L 1.625 -11.953125 L 1.625 0 L 5.691406 0 L 5.691406 -5.960938 C 5.691406 -7.398438 6.855469 -8.941406 8.375 -8.941406 Z M 8.375 -8.941406 "/></g></g></g><g fill="#ffffff" fill-opacity="1"><g transform="translate(73.333991, 24.80166)"><g><path d="M 1.410156 -16.042969 C 1.410156 -14.742188 2.464844 -13.660156 3.792969 -13.660156 C 5.09375 -13.660156 6.179688 -14.742188 6.179688 -16.042969 C 6.179688 -17.371094 5.09375 -18.429688 3.792969 -18.429688 C 2.464844 -18.429688 1.410156 -17.371094 1.410156 -16.042969 Z M 5.828125 0 L 5.828125 -11.953125 L 1.761719 -11.953125 L 1.761719 0 Z M 5.828125 0 "/></g></g></g><g fill="#ffffff" fill-opacity="1"><g transform="translate(86.341185, 24.80166)"><g><path d="M 12.710938 -3.226562 L 6.910156 -3.226562 L 12.65625 -11.953125 L 0.675781 -11.953125 L 0.675781 -8.863281 L 6.421875 -8.863281 L 0.136719 0 L 12.710938 0 Z M 12.710938 -3.226562 "/></g></g></g><g fill="#ffffff" fill-opacity="1"><g transform="translate(104.875925, 24.80166)"><g><path d="M 7.777344 -2.820312 C 5.582031 -2.820312 4.988281 -4.417969 4.988281 -5.933594 C 4.988281 -7.425781 5.636719 -9.023438 7.777344 -9.023438 C 9.890625 -9.023438 10.542969 -7.425781 10.542969 -5.933594 C 10.542969 -4.417969 9.945312 -2.820312 7.777344 -2.820312 Z M 7.777344 -12.195312 C 4.039062 -12.195312 0.949219 -9.703125 0.949219 -5.960938 C 0.949219 -2.140625 3.957031 0.242188 7.777344 0.242188 C 11.570312 0.242188 14.578125 -2.140625 14.578125 -5.960938 C 14.578125 -9.703125 11.492188 -12.195312 7.777344 -12.195312 Z M 7.777344 -12.195312 "/></g></g></g><g fill="#ffffff" fill-opacity="1"><g transform="translate(125.822201, 24.80166)"><g><path d="M 13.847656 -6.773438 C 13.847656 -10.027344 12.546875 -12.222656 9.351562 -12.222656 C 7.777344 -12.222656 6.503906 -11.519531 5.691406 -10.488281 L 5.691406 -11.953125 L 1.625 -11.953125 L 1.625 0 L 5.691406 0 L 5.691406 -5.960938 C 5.691406 -7.589844 6.695312 -8.941406 7.96875 -8.941406 C 9.242188 -8.941406 9.785156 -8.183594 9.785156 -6.773438 L 9.785156 0 L 13.847656 0 Z M 13.847656 -6.773438 "/></g></g></g><g fill="#ffffff" fill-opacity="1"><g transform="translate(146.31339, 24.80166)"><g/></g></g><g fill="#ffffff" fill-opacity="1"><g transform="translate(159.04963, 24.80166)"><g><path d="M 3.957031 -16.042969 C 3.710938 -16.261719 3.414062 -16.394531 3.089844 -16.394531 C 2.765625 -16.394531 2.464844 -16.261719 2.25 -16.042969 C 2.003906 -15.800781 1.898438 -15.5 1.898438 -15.175781 C 1.898438 -14.851562 2.003906 -14.554688 2.25 -14.335938 C 2.464844 -14.09375 2.765625 -13.984375 3.089844 -13.984375 C 3.414062 -13.984375 3.710938 -14.09375 3.957031 -14.335938 C 4.171875 -14.554688 4.308594 -14.851562 4.308594 -15.175781 C 4.308594 -15.5 4.171875 -15.800781 3.957031 -16.042969 Z M 4.066406 0 L 4.066406 -11.925781 L 2.167969 -11.925781 L 2.167969 0 Z M 4.066406 0 "/></g></g></g><g fill="#ffffff" fill-opacity="1"><g transform="translate(170.674942, 24.80166)"><g><path d="M 10.269531 0 L 12.167969 0 L 12.167969 -7.453125 C 12.167969 -8.835938 11.789062 -9.945312 11.085938 -10.785156 C 10.703125 -11.21875 10.269531 -11.542969 9.757812 -11.789062 C 9.214844 -12.03125 8.535156 -12.167969 7.695312 -12.167969 C 6.828125 -12.167969 6.097656 -11.925781 5.445312 -11.492188 C 4.824219 -11.085938 4.308594 -10.542969 3.929688 -9.863281 L 3.929688 -11.925781 L 2.03125 -11.925781 L 2.03125 0 L 3.929688 0 L 3.929688 -4.988281 C 3.929688 -6.503906 4.199219 -7.695312 4.769531 -8.589844 C 5.09375 -9.078125 5.5 -9.484375 6.015625 -9.808594 C 6.503906 -10.109375 7.179688 -10.269531 7.996094 -10.269531 C 8.808594 -10.269531 9.375 -9.972656 9.730469 -9.429688 C 10.082031 -8.890625 10.269531 -8.210938 10.269531 -7.453125 Z M 10.269531 0 "/></g></g></g><g fill="#ffffff" fill-opacity="1"><g transform="translate(189.887084, 24.80166)"><g><path d="M 0.542969 -10.164062 L 3.523438 -10.164062 L 3.523438 0 L 5.421875 0 L 5.421875 -10.164062 L 8.375 -10.164062 L 8.375 -11.925781 L 5.421875 -11.925781 L 5.421875 -16.558594 L 3.523438 -16.558594 L 3.523438 -11.925781 L 0.542969 -11.925781 Z M 0.542969 -10.164062 "/></g></g></g><g fill="#ffffff" fill-opacity="1"><g transform="translate(204.221966, 24.80166)"><g><path d="M 13.6875 -6.234375 C 13.6875 -7.859375 13.035156 -9.269531 11.789062 -10.488281 C 10.570312 -11.652344 9.105469 -12.25 7.453125 -12.25 C 5.71875 -12.25 4.253906 -11.625 3.035156 -10.40625 C 1.816406 -9.1875 1.21875 -7.722656 1.21875 -6.015625 C 1.21875 -4.28125 1.816406 -2.820312 3.035156 -1.625 C 3.605469 -1.058594 4.253906 -0.625 5.011719 -0.296875 C 5.773438 0.0273438 6.667969 0.191406 7.722656 0.191406 C 8.78125 0.191406 9.808594 -0.136719 10.839844 -0.785156 C 11.871094 -1.4375 12.628906 -2.359375 13.144531 -3.496094 L 10.976562 -3.496094 C 10.542969 -2.925781 10.027344 -2.492188 9.402344 -2.167969 C 8.78125 -1.84375 8.128906 -1.707031 7.453125 -1.707031 C 6.421875 -1.707031 5.5 -2.03125 4.6875 -2.710938 C 3.875 -3.359375 3.359375 -4.199219 3.199219 -5.230469 L 13.6875 -5.230469 Z M 11.679688 -6.855469 L 3.226562 -6.855469 C 3.332031 -7.34375 3.523438 -7.804688 3.792969 -8.238281 C 4.660156 -9.648438 5.878906 -10.351562 7.453125 -10.351562 C 8.457031 -10.351562 9.351562 -10.027344 10.136719 -9.375 C 10.949219 -8.699219 11.4375 -7.859375 11.679688 -6.855469 Z M 11.679688 -6.855469 "/></g></g></g><g fill="#ffffff" fill-opacity="1"><g transform="translate(224.409544, 24.80166)"><g><path d="M 8.15625 -9.457031 L 8.15625 -11.925781 C 7.777344 -12.085938 7.371094 -12.167969 6.964844 -12.167969 C 5.609375 -12.167969 4.632812 -11.410156 4.011719 -9.945312 L 3.929688 -9.457031 L 3.929688 -11.925781 L 2.03125 -11.925781 L 2.03125 0 L 3.929688 0 L 3.929688 -5.960938 C 3.929688 -6.9375 4.144531 -7.804688 4.605469 -8.589844 C 4.824219 -8.996094 5.121094 -9.351562 5.472656 -9.621094 C 5.828125 -9.890625 6.261719 -10.054688 6.746094 -10.054688 C 7.234375 -10.054688 7.695312 -9.835938 8.15625 -9.457031 Z M 8.15625 -9.457031 "/></g></g></g><g fill="#ffffff" fill-opacity="1"><g transform="translate(238.256713, 24.80166)"><g><path d="M 11.519531 -5.960938 C 11.519531 -4.796875 11.109375 -3.765625 10.296875 -2.925781 C 9.484375 -2.058594 8.484375 -1.625 7.316406 -1.625 C 6.125 -1.625 5.121094 -2.058594 4.308594 -2.925781 C 3.496094 -3.765625 3.117188 -4.796875 3.117188 -5.960938 C 3.117188 -7.101562 3.496094 -8.128906 4.308594 -8.996094 C 5.121094 -9.863281 6.125 -10.296875 7.316406 -10.296875 C 8.484375 -10.296875 9.484375 -9.863281 10.296875 -8.996094 C 11.109375 -8.128906 11.519531 -7.101562 11.519531 -5.960938 Z M 13.414062 0 L 13.414062 -11.925781 L 11.519531 -11.925781 L 11.519531 -9.863281 C 11.410156 -10.027344 11.273438 -10.164062 11.164062 -10.296875 C 10.027344 -11.542969 8.644531 -12.195312 7.019531 -12.195312 C 5.367188 -12.195312 3.984375 -11.542969 2.84375 -10.296875 C 1.761719 -9.050781 1.21875 -7.613281 1.21875 -5.960938 C 1.21875 -4.28125 1.761719 -2.84375 2.84375 -1.625 C 3.984375 -0.351562 5.367188 0.269531 7.019531 0.269531 C 8.644531 0.269531 10.027344 -0.351562 11.164062 -1.625 C 11.273438 -1.734375 11.410156 -1.871094 11.519531 -2.03125 L 11.519531 0 Z M 13.414062 0 "/></g></g></g><g fill="#ffffff" fill-opacity="1"><g transform="translate(259.121689, 24.80166)"><g><path d="M 13.171875 -7.640625 C 12.792969 -8.96875 12.058594 -10.054688 11.003906 -10.894531 C 9.890625 -11.734375 8.671875 -12.167969 7.316406 -12.167969 C 5.609375 -12.167969 4.144531 -11.542969 2.980469 -10.324219 C 1.789062 -9.105469 1.21875 -7.640625 1.21875 -5.960938 C 1.21875 -4.253906 1.789062 -2.820312 2.980469 -1.570312 C 3.523438 -1.003906 4.144531 -0.542969 4.90625 -0.21875 C 5.636719 0.109375 6.394531 0.269531 7.15625 0.269531 C 7.914062 0.269531 8.589844 0.191406 9.1875 -0.0273438 C 11.085938 -0.703125 12.386719 -1.976562 13.0625 -3.902344 L 10.921875 -3.902344 C 10.542969 -3.226562 10.054688 -2.683594 9.402344 -2.304688 C 8.753906 -1.898438 8.074219 -1.707031 7.316406 -1.707031 C 6.152344 -1.707031 5.175781 -2.113281 4.363281 -2.953125 C 3.550781 -3.792969 3.171875 -4.796875 3.171875 -5.960938 C 3.171875 -7.074219 3.550781 -8.074219 4.363281 -8.917969 C 4.742188 -9.296875 5.175781 -9.621094 5.691406 -9.835938 C 6.179688 -10.054688 6.800781 -10.191406 7.507812 -10.191406 C 8.210938 -10.191406 8.890625 -9.945312 9.59375 -9.484375 C 10.269531 -8.996094 10.785156 -8.402344 11.109375 -7.640625 Z M 13.171875 -7.640625 "/></g></g></g><g fill="#ffffff" fill-opacity="1"><g transform="translate(278.658972, 24.80166)"><g><path d="M 0.542969 -10.164062 L 3.523438 -10.164062 L 3.523438 0 L 5.421875 0 L 5.421875 -10.164062 L 8.375 -10.164062 L 8.375 -11.925781 L 5.421875 -11.925781 L 5.421875 -16.558594 L 3.523438 -16.558594 L 3.523438 -11.925781 L 0.542969 -11.925781 Z M 0.542969 -10.164062 "/></g></g></g><g fill="#ffffff" fill-opacity="1"><g transform="translate(292.99386, 24.80166)"><g><path d="M 3.957031 -16.042969 C 3.710938 -16.261719 3.414062 -16.394531 3.089844 -16.394531 C 2.765625 -16.394531 2.464844 -16.261719 2.25 -16.042969 C 2.003906 -15.800781 1.898438 -15.5 1.898438 -15.175781 C 1.898438 -14.851562 2.003906 -14.554688 2.25 -14.335938 C 2.464844 -14.09375 2.765625 -13.984375 3.089844 -13.984375 C 3.414062 -13.984375 3.710938 -14.09375 3.957031 -14.335938 C 4.171875 -14.554688 4.308594 -14.851562 4.308594 -15.175781 C 4.308594 -15.5 4.171875 -15.800781 3.957031 -16.042969 Z M 4.066406 0 L 4.066406 -11.925781 L 2.167969 -11.925781 L 2.167969 0 Z M 4.066406 0 "/></g></g></g><g fill="#ffffff" fill-opacity="1"><g transform="translate(304.619176, 24.80166)"><g><path d="M 5.773438 1.136719 L 11.246094 -11.925781 L 9.1875 -11.925781 L 5.773438 -3.0625 L 2.332031 -11.925781 L 0.269531 -11.925781 Z M 5.773438 1.136719 "/></g></g></g><g fill="#ffffff" fill-opacity="1"><g transform="translate(321.555268, 24.80166)"><g><path d="M 13.6875 -6.234375 C 13.6875 -7.859375 13.035156 -9.269531 11.789062 -10.488281 C 10.570312 -11.652344 9.105469 -12.25 7.453125 -12.25 C 5.71875 -12.25 4.253906 -11.625 3.035156 -10.40625 C 1.816406 -9.1875 1.21875 -7.722656 1.21875 -6.015625 C 1.21875 -4.28125 1.816406 -2.820312 3.035156 -1.625 C 3.605469 -1.058594 4.253906 -0.625 5.011719 -0.296875 C 5.773438 0.0273438 6.667969 0.191406 7.722656 0.191406 C 8.78125 0.191406 9.808594 -0.136719 10.839844 -0.785156 C 11.871094 -1.4375 12.628906 -2.359375 13.144531 -3.496094 L 10.976562 -3.496094 C 10.542969 -2.925781 10.027344 -2.492188 9.402344 -2.167969 C 8.78125 -1.84375 8.128906 -1.707031 7.453125 -1.707031 C 6.421875 -1.707031 5.5 -2.03125 4.6875 -2.710938 C 3.875 -3.359375 3.359375 -4.199219 3.199219 -5.230469 L 13.6875 -5.230469 Z M 11.679688 -6.855469 L 3.226562 -6.855469 C 3.332031 -7.34375 3.523438 -7.804688 3.792969 -8.238281 C 4.660156 -9.648438 5.878906 -10.351562 7.453125 -10.351562 C 8.457031 -10.351562 9.351562 -10.027344 10.136719 -9.375 C 10.949219 -8.699219 11.4375 -7.859375 11.679688 -6.855469 Z M 11.679688 -6.855469 "/></g></g></g></svg>