<?xml version="1.0" standalone="no"?>
<!DOCTYPE svg PUBLIC "-//W3C//DTD SVG 20010904//EN"
 "http://www.w3.org/TR/2001/REC-SVG-20010904/DTD/svg10.dtd">
<svg version="1.0" xmlns="http://www.w3.org/2000/svg"
 width="480.000000pt" height="480.000000pt" viewBox="0 0 480.000000 480.000000"
 preserveAspectRatio="xMidYMid meet">
<metadata>
Created by potrace 1.14, written by Peter Selinger 2001-2017
</metadata>
<g transform="translate(0.000000,480.000000) scale(0.100000,-0.100000)"
fill="#000000" stroke="none">
<path d="M50 4717 c0 -4 213 -127 235 -136 61 -24 265 -183 320 -249 69 -83
133 -220 150 -321 4 -24 9 -624 10 -1335 2 -710 4 -1480 5 -1712 1 -311 4
-433 14 -470 43 -163 169 -288 311 -310 42 -6 1335 -13 1335 -7 0 1 -30 19
-67 39 -38 20 -101 57 -141 81 -40 23 -77 43 -82 43 -6 0 -10 5 -10 10 0 6 -5
10 -12 10 -15 0 -140 94 -199 151 -107 101 -186 247 -204 379 -3 25 -8 812
-10 1750 -4 1512 -6 1712 -20 1764 -34 127 -118 235 -220 283 l-60 28 -677 3
c-373 1 -678 1 -678 -1z"/>
<path d="M2170 2538 l0 -483 403 0 402 0 36 -45 36 -45 -1 -685 c-2 -740 0
-773 51 -876 38 -78 118 -158 190 -191 l58 -26 678 -1 c563 -1 676 1 660 12
-10 7 -85 51 -168 98 -318 181 -446 316 -507 532 -21 76 -21 91 -23 962 -1
487 -5 899 -9 915 -13 51 -49 128 -82 172 -40 55 -82 88 -141 116 l-48 22
-767 3 -768 3 0 -483z"/>
</g>
</svg>
